%
T1C.01181F095S3
X012362Y010512
X01311Y01063
X013031Y01122
X011585Y011693
X012598Y011693
X011575Y012047
X01315Y014488
X010906Y014528
X010906Y014882
X011339Y016339
X011654Y016496
X011535Y017087
X011181Y017165
X01252Y017283
X012402Y017638
X011969Y018189
X011457Y018346
X012638Y018661
X011181Y019055
X012677Y019606
X013071Y019646
X011102Y019665
X011181Y020161
X012531Y020161
X011181Y020661
X011496Y020827
X011181Y021161
X012531Y021161
X011181Y022165
X012677Y022165
X011181Y022677
X011102Y02315
X012874Y023228
X013307Y024882
X01185Y025276
X015433Y023622
X014921Y023071
X013504Y022362
X013957Y021988
X015433Y021378
X015433Y020984
X014016Y020236
X014409Y019921
X015157Y019469
X014567Y019252
X015079Y018307
X013504Y018031
X015591Y017047
X015748Y016614
X014409Y016496
X015827Y016063
X014488Y015906
X014724Y015512
X015591Y015197
X014724Y013937
X015197Y01374
X014094Y013661
X013937Y013346
X014134Y012953
X014094Y012323
X015217Y012224
X015472Y011457
X014213Y01126
X014882Y01063
X017126Y011181
X01811Y011181
X016614Y011181
X017638Y011181
X01622Y011457
X018031Y011575
X017126Y011575
X017638Y011614
X016457Y013346
X015906Y013386
X01815Y015197
X017598Y015197
X016535Y016024
X016102Y016417
X016102Y016772
X017717Y017008
X016142Y017323
X017717Y017362
X01815Y017402
X016181Y018071
X016339Y018465
X017559Y01878
X018386Y018898
X017205Y018898
X017913Y018898
X016535Y01937
X01626Y019921
X017677Y020118
X017992Y020197
X017362Y020394
X018071Y020551
X016929Y021614
X017244Y021614
X016378Y022717
X01685Y022756
X020354Y024803
X02063Y023189
X018701Y022835
X020748Y021339
X020748Y020945
X019843Y020906
X018661Y020551
X01937Y020472
X019646Y019094
X019528Y018465
X020748Y017953
X019016Y017717
X01937Y017323
X018957Y017146
X018622Y017008
X020709Y01689
X019843Y016772
X020315Y016693
X019823Y016181
X019488Y015748
X019055Y01563
X020236Y015591
X019567Y014961
X020709Y014803
X019508Y014626
X019921Y013346
X019291Y01311
X019843Y012913
X020551Y012795
X020669Y011693
X018622Y011575
X019449Y011417
X019134Y011102
X023189Y011063
X022126Y011575
X021457Y011772
X021181Y011969
X021693Y013189
X022047Y013228
X02122Y013976
X022992Y014764
X021654Y014921
X023346Y015472
X022992Y015866
X02252Y016339
X021732Y01689
X021496Y017205
X020906Y017598
X021457Y018307
X022874Y018307
X021811Y018307
X022717Y019055
X021811Y019291
X021378Y019331
X020906Y019449
X022087Y019488
X023012Y019843
X023217Y020173
X022441Y020276
X023071Y020512
X021654Y020669
X023071Y022047
X023071Y022362
X022545Y022642
X022245Y022642
X023217Y022673
X023217Y023173
X021614Y023189
X023217Y023673
X021378Y024843
X022205Y024843
X024606Y02315
X024173Y02311
X024291Y022559
X02437Y022126
X02437Y021378
X024528Y021063
X024331Y020472
X024606Y020157
X024134Y020157
X024291Y019764
X025157Y018796
X023898Y018583
X024843Y018465
X023898Y018228
X024921Y01748
X023504Y017047
X023465Y014882
X023819Y013228
X030433Y010787
X031378Y010787
X030906Y010787
X032165Y011181
X032244Y01189
X029685Y012717
X034409Y012717
X034409Y01189
X033937Y01189
X034213Y011339
X034606Y010787
X033622Y010787
X036654Y010787
X036142Y011181
X036063Y011575
X035984Y012067
X039134Y012717
X044646Y024882
X043937Y024449
X044606Y024331
X043583Y024213
X044213Y023701
X044685Y023701
X044685Y02315
X044213Y02315
X044252Y022669
X044646Y022665
X044252Y022169
X044646Y022165
X044252Y021669
X044646Y021665
X044646Y02122
X044252Y021169
X044252Y020669
X044685Y02063
X044252Y020236
X044213Y019685
X044685Y019134
X044213Y019134
X044803Y017165
X044409Y017165
X044252Y015906
X045945Y017638
X045945Y018071
X046181Y018898
X045984Y019685
X048307Y019803
X047323Y019843
X045984Y02
X047717Y020118
X047008Y020787
X04685Y022323
X046772Y022795
X046732Y023228
X047598Y023622
X047953Y024173
X05063Y022992
X048504Y022992
X048504Y022008
X05063Y020906
X048504Y020906
X050669Y019843
X050157Y019843
X04878Y019803
X051102Y019803
X051732Y020039
X052362Y020906
X052362Y022008
X052362Y022992
X051417Y023898
X052008Y023898
X051102Y023937
X05252Y024173
X051575Y024173
X05374Y024843
X057283Y024252
X057677Y024213
X058268Y024173
X057677Y023819
X057205Y023819
X057677Y02315
X057205Y02315
X057244Y022677
X057638Y022677
X057244Y022165
X057638Y022165
X057638Y021654
X057244Y021654
X057638Y021181
X057244Y021181
X057244Y020669
X057677Y020669
X057244Y020157
X057638Y020157
X057244Y019724
X057638Y019724
X057362Y019016
T2C.016F095S3
X024528Y01748
X024213Y01748
T3C.02F197S55
X025827Y011969
X025827Y012362
X025827Y012756
X025827Y022992
X025827Y023386
X025827Y02378
X026457Y02378
X026457Y023386
X026457Y022992
X026457Y012756
X026457Y012362
X026457Y011969
X042362Y011969
X042992Y011969
X042362Y012362
X042992Y012362
X042362Y012756
X042992Y012756
X042362Y022992
X042992Y022992
X042362Y023386
X042992Y023386
X042992Y02378
X042362Y02378
T4C.02756F197S55
X016437Y02439G85X016437Y024665
X019311Y02439G85X019311Y024665
T5C.02992F197S55
X015874Y011378
X011378Y019417
X011378Y023417
X02437Y023417
X02437Y019417
X019874Y011378
T6C.03543F197S55
X0465Y01125
X0475Y01125
X0475Y01225
X0475Y01325
X0475Y01425
X0475Y01525
X0475Y01625
X0475Y01725
X0465Y01725
X0485Y01725
X0495Y01725
X0505Y01725
X0485Y01625
X0495Y01625
X0505Y01625
X0485Y01525
X0495Y01525
X0505Y01525
X0485Y01425
X0495Y01425
X0505Y01425
X0485Y01325
X0495Y01325
X0505Y01325
X0485Y01225
X0495Y01225
X0505Y01225
X0505Y01125
X0495Y01125
X0485Y01125
X0515Y01125
X0525Y01125
X0515Y01225
X0525Y01225
X0515Y01325
X0525Y01325
X0525Y01425
X0515Y01425
X0525Y01525
X0515Y01525
X0515Y01625
X0525Y01625
X0515Y01725
X0525Y01725
X0545Y01725
X0555Y01725
X0535Y01725
X0535Y01625
X0545Y01625
X0555Y01625
X0535Y01525
X0545Y01525
X0555Y01525
X0535Y01425
X0545Y01425
X0555Y01425
X0545Y01325
X0555Y01325
X0535Y01325
X0535Y01225
X0545Y01225
X0555Y01225
X0535Y01125
X0555Y01125
X0545Y01125
X0565Y01125
X0575Y01125
X0575Y01225
X0565Y01225
X0565Y01325
X0575Y01325
X0565Y01425
X0575Y01425
X0565Y01525
X0575Y01525
X0565Y01625
X0575Y01625
X0575Y01725
X0565Y01725
X0575Y01825
T7C.039F197S55
X044449Y019417
X044449Y023417
X057441Y023417
X057441Y019417
T8C.039F197S55
X015146Y025118
X014146Y025118
T9C.03937F197S55
X023425Y013917G85X024134Y013917
X011614Y013917G85X012323Y013917
X011614Y024409G85X012323Y024409
X023425Y024409G85X024134Y024409
M30
